<svg width="21" height="20" viewBox="0 0 21 20" fill="none" xmlns="http://www.w3.org/2000/svg">
<path d="M12.9784 18.9584H7.97835C3.45335 18.9584 1.52002 17.0251 1.52002 12.5001V7.50008C1.52002 2.97508 3.45335 1.04175 7.97835 1.04175H9.64502C9.98669 1.04175 10.27 1.32508 10.27 1.66675C10.27 2.00841 9.98669 2.29175 9.64502 2.29175H7.97835C4.13669 2.29175 2.77002 3.65841 2.77002 7.50008V12.5001C2.77002 16.3417 4.13669 17.7084 7.97835 17.7084H12.9784C16.82 17.7084 18.1867 16.3417 18.1867 12.5001V10.8334C18.1867 10.4917 18.47 10.2084 18.8117 10.2084C19.1534 10.2084 19.4367 10.4917 19.4367 10.8334V12.5001C19.4367 17.0251 17.5034 18.9584 12.9784 18.9584Z" fill="white"/>
<path d="M7.56163 14.7417C7.0533 14.7417 6.58663 14.5584 6.24496 14.2251C5.83663 13.8167 5.66163 13.2251 5.7533 12.6001L6.11163 10.0917C6.1783 9.60838 6.49496 8.98338 6.83663 8.64172L13.4033 2.07505C15.0616 0.416715 16.745 0.416715 18.4033 2.07505C19.3116 2.98338 19.72 3.90838 19.6366 4.83338C19.5616 5.58338 19.1616 6.31672 18.4033 7.06672L11.8366 13.6334C11.495 13.9751 10.87 14.2917 10.3866 14.3584L7.8783 14.7167C7.76996 14.7417 7.66163 14.7417 7.56163 14.7417ZM14.2866 2.95838L7.71996 9.52505C7.56163 9.68338 7.3783 10.05 7.34496 10.2667L6.98663 12.7751C6.9533 13.0167 7.0033 13.2167 7.1283 13.3417C7.2533 13.4667 7.4533 13.5167 7.69496 13.4834L10.2033 13.1251C10.42 13.0917 10.795 12.9084 10.945 12.7501L17.5116 6.18338C18.0533 5.64172 18.3366 5.15838 18.3783 4.70838C18.4283 4.16672 18.145 3.59172 17.5116 2.95005C16.1783 1.61672 15.2616 1.99172 14.2866 2.95838Z" fill="white"/>
<path d="M17.0203 8.19173C16.962 8.19173 16.9036 8.1834 16.8536 8.16673C14.662 7.55006 12.9203 5.8084 12.3036 3.61673C12.212 3.2834 12.4036 2.94173 12.737 2.84173C13.0703 2.75006 13.412 2.94173 13.5036 3.27506C14.0036 5.05006 15.412 6.4584 17.187 6.9584C17.5203 7.05006 17.712 7.40006 17.6203 7.7334C17.5453 8.01673 17.2953 8.19173 17.0203 8.19173Z" fill="white"/>
</svg>
