<svg width="108" height="57" viewBox="0 0 108 57" fill="none" xmlns="http://www.w3.org/2000/svg">
<path d="M106.655 9.47856C107.396 9.76288 108 10.6483 108 11.4447V45.3622C108 46.1581 107.396 47.044 106.655 47.3283L83.5824 56.1924C82.8437 56.4767 82.2377 56.0584 82.2377 55.2609V1.54648C82.2377 0.749552 82.8437 0.330673 83.5824 0.61499L106.655 9.47856ZM88.0022 46.2868C88.0022 47.0833 88.618 47.5252 89.3682 47.2686L101.254 43.1908C102.004 42.9337 102.618 42.0713 102.618 41.2749V15.5325C102.618 14.7355 102.004 13.8716 101.254 13.6145L89.3682 9.53824C88.6186 9.28168 88.0022 9.72412 88.0022 10.52V46.2868Z" fill="#3162DA"/>
<path d="M85.1182 29.4742C85.1182 29.7889 85.7668 30.047 86.5592 30.047H104.017C104.809 30.047 105.458 29.7889 105.458 29.4742C105.458 29.1595 104.809 28.9014 104.017 28.9014H86.5592C85.7668 28.9014 85.1182 29.1595 85.1182 29.4742Z" fill="#3162DA"/>
<path d="M95.289 46.0788C95.6138 46.0788 95.8804 45.4253 95.8804 44.6284V9.08565C95.8804 8.28872 95.6138 7.63525 95.289 7.63525C94.9636 7.63525 94.694 8.2882 94.694 9.08565V44.6284C94.694 45.4258 94.9636 46.0788 95.289 46.0788Z" fill="#3162DA"/>
<path d="M21.4125 11.3563C22.5279 11.3563 23.534 11.488 24.4307 11.7513C25.3274 11.9927 26.0929 12.3548 26.7271 12.8376C27.3614 13.3203 27.8425 13.9128 28.1706 14.6151C28.5205 15.3173 28.6955 16.1292 28.6955 17.0509C28.6955 18.0604 28.4549 18.982 27.9737 19.8159C27.4926 20.6279 26.8911 21.2972 26.1694 21.8238C26.3444 21.8019 26.5193 21.7909 26.6943 21.7909C26.8693 21.7909 27.0442 21.7909 27.2192 21.7909H30.5654C31.0028 21.7909 31.3309 21.9336 31.5496 22.2188C31.7683 22.4822 31.8777 22.9979 31.8777 23.7659C31.8777 24.512 31.7683 25.0387 31.5496 25.3459C31.3528 25.6312 31.0247 25.7739 30.5654 25.7739H26.4975C25.5789 25.7739 24.6603 25.73 23.7417 25.6422C22.845 25.5544 22.0796 25.335 21.4453 24.9839C21.0516 25.1814 20.6142 25.335 20.1331 25.4447C19.6519 25.5544 19.1707 25.6312 18.6896 25.6751C18.2084 25.719 17.7382 25.7519 17.2789 25.7739C16.8415 25.7739 16.4588 25.7739 16.1307 25.7739H4.05805C2.68019 25.7739 1.696 25.4447 1.10549 24.7864C0.514982 24.1061 0.219727 23.0527 0.219727 21.6263V14.1871C0.219727 13.9677 0.32908 13.858 0.547788 13.858H4.55014C4.76885 13.858 4.8782 13.9677 4.8782 14.1871V20.0463C4.8782 20.4633 4.93288 20.7924 5.04223 21.0338C5.15159 21.2533 5.30468 21.4288 5.50152 21.5605C5.69836 21.6702 5.93893 21.7361 6.22325 21.758C6.52944 21.78 6.87938 21.7909 7.27305 21.7909H16.6556C15.9339 21.2862 15.3324 20.6279 14.8513 19.8159C14.3701 18.982 14.1295 18.0604 14.1295 17.0509C14.1295 16.1292 14.2936 15.3173 14.6216 14.6151C14.9716 13.9128 15.4637 13.3203 16.0979 12.8376C16.7322 12.3548 17.4976 11.9927 18.3943 11.7513C19.291 11.488 20.2971 11.3563 21.4125 11.3563ZM21.4125 14.6151C20.7345 14.6151 20.1221 14.8455 19.5754 15.3063C19.0286 15.7452 18.7552 16.4474 18.7552 17.413C18.7552 18.4005 19.0177 19.2015 19.5426 19.8159C20.0675 20.4084 20.6908 20.8802 21.4125 21.2313C22.1342 20.8802 22.7576 20.4084 23.2825 19.8159C23.8074 19.2015 24.0698 18.4005 24.0698 17.413C24.0698 16.9302 23.9933 16.5133 23.8402 16.1621C23.6871 15.811 23.4902 15.5258 23.2497 15.3063C23.0091 15.0649 22.7248 14.8894 22.3967 14.7796C22.0905 14.6699 21.7624 14.6151 21.4125 14.6151ZM19.2145 8.59129C18.9958 8.59129 18.8864 8.48156 18.8864 8.26212V5.03627C18.8864 4.81682 18.9958 4.7071 19.2145 4.7071H23.2825C23.5012 4.7071 23.6105 4.81682 23.6105 5.03627V8.26212C23.6105 8.48156 23.5012 8.59129 23.2825 8.59129H19.2145Z" fill="#3162DA"/>
<path d="M50.4347 25.7739C49.5817 25.7739 48.8819 25.6202 48.3351 25.313C47.8102 24.9839 47.4056 24.5559 47.1213 24.0293C46.8151 24.7095 46.3448 25.1704 45.7106 25.4118C45.0982 25.6532 44.2562 25.7739 43.1845 25.7739H41.9051C41.0521 25.7739 40.3522 25.6202 39.8055 25.313C39.2587 24.9839 38.8432 24.5559 38.5588 24.0293C38.2527 24.7315 37.7934 25.2033 37.181 25.4447C36.5686 25.6641 35.7047 25.7739 34.5893 25.7739H30.6526C30.2151 25.7739 29.8871 25.6532 29.6684 25.4118C29.4497 25.1484 29.3403 24.6547 29.3403 23.9305C29.3403 23.1625 29.4497 22.6138 29.6684 22.2847C29.8652 21.9555 30.1933 21.7909 30.6526 21.7909H32.8506C33.4848 21.7909 33.8894 21.6373 34.0644 21.3301C34.2394 21.0009 34.3269 20.4084 34.3269 19.5526V14.6151C34.3269 14.3956 34.4362 14.2859 34.6549 14.2859H38.6573C38.876 14.2859 38.9853 14.3956 38.9853 14.6151V20.0134C38.9853 20.7156 39.204 21.1874 39.6414 21.4288C40.0789 21.6702 40.56 21.7909 41.0849 21.7909C41.5005 21.7909 41.8285 21.747 42.0691 21.6593C42.3316 21.5715 42.5175 21.4398 42.6268 21.2643C42.7362 21.0887 42.8018 20.8583 42.8236 20.573C42.8674 20.2658 42.8893 19.8927 42.8893 19.4538V14.6151C42.8893 14.3956 42.9986 14.2859 43.2173 14.2859H47.2197C47.4384 14.2859 47.5477 14.3956 47.5477 14.6151V19.9805C47.5477 20.7266 47.7664 21.2204 48.2039 21.4618C48.6631 21.6812 49.1771 21.7909 49.7457 21.7909C50.1613 21.7909 50.4784 21.747 50.6971 21.6593C50.9158 21.5715 51.0799 21.4398 51.1892 21.2643C51.2986 21.0668 51.3642 20.8254 51.3861 20.5401C51.4079 20.2329 51.4189 19.8598 51.4189 19.4209V12.2451C51.4189 12.0256 51.5282 11.9159 51.7469 11.9159H55.7493C55.968 11.9159 56.0773 12.0256 56.0773 12.2451V20.0134C56.1211 20.562 56.3507 21.0009 56.7663 21.3301C57.2037 21.6373 57.8051 21.7909 58.5706 21.7909H59.3251C59.7626 21.7909 60.0906 21.9445 60.3093 22.2518C60.528 22.559 60.6374 23.0637 60.6374 23.7659C60.6374 25.1045 60.2 25.7739 59.3251 25.7739C58.4941 25.7739 57.7723 25.6751 57.1599 25.4776C56.5476 25.2801 56.0336 24.8302 55.618 24.128C55.3119 24.7644 54.8635 25.2033 54.273 25.4447C53.6825 25.6641 53.0045 25.7739 52.239 25.7739H50.4347ZM40.9209 8.59129C40.7022 8.59129 40.5928 8.48156 40.5928 8.26212V5.03627C40.5928 4.81682 40.7022 4.7071 40.9209 4.7071H44.2015C44.4202 4.7071 44.5296 4.81682 44.5296 5.03627V8.26212C44.5296 8.48156 44.4202 8.59129 44.2015 8.59129H40.9209ZM45.973 8.59129C45.7543 8.59129 45.645 8.48156 45.645 8.26212V5.03627C45.645 4.81682 45.7543 4.7071 45.973 4.7071H49.2865C49.5052 4.7071 49.6145 4.81682 49.6145 5.03627V8.26212C49.6145 8.48156 49.5052 8.59129 49.2865 8.59129H45.973ZM43.4798 3.88418C43.2611 3.88418 43.1517 3.77446 43.1517 3.55502V0.329168C43.1517 0.109723 43.2611 0 43.4798 0H46.7604C46.9791 0 47.0884 0.109723 47.0884 0.329168V3.55502C47.0884 3.77446 46.9791 3.88418 46.7604 3.88418H43.4798Z" fill="#3162DA"/>
<path d="M66.8713 11.6525C68.0086 11.6964 69.0037 11.8171 69.8567 12.0146C70.7315 12.2121 71.4642 12.5632 72.0547 13.068C72.6452 13.5507 73.0826 14.2091 73.367 15.043C73.6731 15.8769 73.8262 16.9302 73.8262 18.203V20.1451C73.8262 21.2204 73.7169 22.1201 73.4982 22.8443C73.3013 23.5684 72.9951 24.15 72.5796 24.5889C72.1859 25.0058 71.672 25.313 71.0377 25.5105C70.4253 25.6861 69.7036 25.7739 68.8725 25.7739H59.2275C58.7901 25.7739 58.462 25.6202 58.2433 25.313C58.0246 25.0058 57.9152 24.4572 57.9152 23.6672C57.9152 22.9211 58.0246 22.4273 58.2433 22.1859C58.4401 21.9226 58.7682 21.7909 59.2275 21.7909H66.5761C67.101 21.7909 67.5275 21.758 67.8555 21.6922C68.1836 21.6263 68.4351 21.5166 68.6101 21.363C68.785 21.1874 68.8944 20.957 68.9381 20.6718C69.0037 20.3865 69.0365 20.0244 69.0365 19.5855V18.0713C69.0365 17.1935 68.796 16.5571 68.3148 16.1621C67.8555 15.7671 67.1119 15.5696 66.084 15.5696H61.1631C60.9444 15.5696 60.835 15.4599 60.835 15.2405V12.5413C60.835 12.3877 60.9225 12.2231 61.0974 12.0475C61.2724 11.85 61.4255 11.6745 61.5567 11.5209L68.5116 3.25876C68.6429 3.10515 68.785 3.07223 68.9381 3.16001L71.661 5.46419C71.836 5.59586 71.8797 5.74947 71.7923 5.92502L66.8713 11.6525Z" fill="#3162DA"/>
<path d="M12.7382 46.8151C13.1297 46.8151 13.4082 46.7322 13.5739 46.5666C13.7545 46.3859 13.8449 46.0697 13.8449 45.618V40.2654C13.8449 40.1148 13.9202 40.0395 14.0707 40.0395H16.8262C16.9767 40.0395 17.052 40.1148 17.052 40.2654V46.7021C17.052 47.6808 16.8487 48.4036 16.4422 48.8703C16.0357 49.322 15.343 49.5479 14.3643 49.5479H2.6425C1.69391 49.5479 1.01635 49.322 0.609807 48.8703C0.203269 48.4036 0 47.6808 0 46.7021V41.7108C0 41.5602 0.0752848 41.485 0.225855 41.485H2.98128C3.13185 41.485 3.20713 41.5602 3.20713 41.7108V45.618C3.20713 46.0697 3.28995 46.3859 3.45557 46.5666C3.63626 46.7322 3.91481 46.8151 4.29124 46.8151H12.7382ZM5.62378 39.0909C5.47321 39.0909 5.39792 39.0156 5.39792 38.8651V36.6517C5.39792 36.5012 5.47321 36.4259 5.62378 36.4259H7.88232C8.03289 36.4259 8.10818 36.5012 8.10818 36.6517V38.8651C8.10818 39.0156 8.03289 39.0909 7.88232 39.0909H5.62378ZM9.10194 39.0909C8.95137 39.0909 8.87608 39.0156 8.87608 38.8651V36.6517C8.87608 36.5012 8.95137 36.4259 9.10194 36.4259H11.3831C11.5336 36.4259 11.6089 36.5012 11.6089 36.6517V38.8651C11.6089 39.0156 11.5336 39.0909 11.3831 39.0909H9.10194Z" fill="#3162DA"/>
<path d="M19.5465 34.4158C19.5465 34.2652 19.6218 34.1899 19.7723 34.1899H22.5052C22.6557 34.1899 22.731 34.2652 22.731 34.4158V45.618C22.731 46.0697 22.8138 46.3859 22.9795 46.5666C23.1601 46.7322 23.4387 46.8151 23.8151 46.8151H24.4249C24.7261 46.8151 24.9519 46.928 25.1025 47.1538C25.2531 47.3646 25.3283 47.726 25.3283 48.2379C25.3283 48.78 25.2531 49.1338 25.1025 49.2994C24.967 49.4651 24.7411 49.5479 24.4249 49.5479H22.189C21.2404 49.5479 20.5628 49.322 20.1563 48.8703C19.7497 48.4036 19.5465 47.6808 19.5465 46.7021V34.4158Z" fill="#3162DA"/>
<path d="M26.5563 54.1552C26.4057 54.1552 26.3304 54.08 26.3304 53.9294V51.716C26.3304 51.5655 26.4057 51.4902 26.5563 51.4902H29.3568C29.5074 51.4902 29.5827 51.5655 29.5827 51.716V53.9294C29.5827 54.08 29.5074 54.1552 29.3568 54.1552H26.5563ZM29.2665 48.4186C29.0105 48.8854 28.6567 49.194 28.205 49.3446C27.7533 49.4801 27.1209 49.5479 26.3078 49.5479H24.501C24.1998 49.5479 23.974 49.5027 23.8234 49.4124C23.6728 49.307 23.5976 49.0886 23.5976 48.7574C23.5976 48.5616 23.6126 48.3509 23.6427 48.125C23.6728 47.8991 23.7255 47.6884 23.8008 47.4926C23.8761 47.2969 23.974 47.1388 24.0944 47.0183C24.2149 46.8828 24.3655 46.8151 24.5461 46.8151H25.2915C25.7582 46.8151 26.0518 46.6871 26.1723 46.4311C26.3078 46.1601 26.3756 45.6858 26.3756 45.0082V40.2654C26.3756 40.1449 26.481 40.0771 26.6918 40.0621C26.9176 40.047 27.1134 40.0395 27.279 40.0395H29.3568C29.5074 40.0395 29.5827 40.1148 29.5827 40.2654V45.5955C29.6128 45.9719 29.7709 46.273 30.057 46.4989C30.3581 46.7097 30.7722 46.8151 31.2992 46.8151H31.8187C32.1198 46.8151 32.3457 46.9205 32.4962 47.1313C32.6468 47.342 32.7221 47.6884 32.7221 48.1702C32.7221 49.0886 32.4209 49.5479 31.8187 49.5479C31.2465 49.5479 30.7496 49.4801 30.328 49.3446C29.9064 49.2091 29.5526 48.9004 29.2665 48.4186Z" fill="#3162DA"/>
<path d="M31.7338 49.5479C31.4327 49.5479 31.2068 49.4575 31.0562 49.2768C30.9057 49.0811 30.8304 48.7423 30.8304 48.2605C30.8304 47.2969 31.1315 46.8151 31.7338 46.8151H33.1341C33.5105 46.8151 33.7815 46.7322 33.9472 46.5666C34.1278 46.3859 34.2182 46.0697 34.2182 45.618V40.2654C34.2182 40.1148 34.2935 40.0395 34.444 40.0395H37.1769C37.3275 40.0395 37.4027 40.1148 37.4027 40.2654V46.7021C37.4027 47.6808 37.1995 48.4036 36.7929 48.8703C36.3864 49.322 35.7088 49.5479 34.7602 49.5479H31.7338ZM32.5695 54.1778C32.4189 54.1778 32.3436 54.1025 32.3436 53.952V51.7386C32.3436 51.5881 32.4189 51.5128 32.5695 51.5128H34.828C34.9786 51.5128 35.0539 51.5881 35.0539 51.7386V53.952C35.0539 54.1025 34.9786 54.1778 34.828 54.1778H32.5695ZM36.0476 54.1778C35.897 54.1778 35.8218 54.1025 35.8218 53.952V51.7386C35.8218 51.5881 35.897 51.5128 36.0476 51.5128H38.3287C38.4793 51.5128 38.5546 51.5881 38.5546 51.7386V53.952C38.5546 54.1025 38.4793 54.1778 38.3287 54.1778H36.0476Z" fill="#3162DA"/>
<path d="M41.4305 40.2654C41.4305 40.1148 41.5058 40.0395 41.6564 40.0395H44.4118C44.5624 40.0395 44.6377 40.1148 44.6377 40.2654V45.5955C44.6678 45.9719 44.8259 46.273 45.112 46.4989C45.4131 46.7097 45.8272 46.8151 46.3542 46.8151H46.851C47.1522 46.8151 47.378 46.9205 47.5286 47.1313C47.6792 47.342 47.7545 47.6884 47.7545 48.1702C47.7545 49.0886 47.4533 49.5479 46.851 49.5479C46.3542 49.5479 45.925 49.5027 45.5637 49.4124C45.2023 49.307 44.8936 49.0962 44.6377 48.78V49.1413C44.6377 50.8578 44.3064 52.1226 43.6439 52.9356C42.9814 53.7638 41.8521 54.1778 40.2561 54.1778H39.2172C39.0666 54.1778 38.9913 54.1025 38.9913 53.952V51.6709C38.9913 51.5203 39.0666 51.445 39.2172 51.445H39.714C40.1206 51.445 40.4368 51.3773 40.6626 51.2418C40.8885 51.1213 41.0541 50.9331 41.1595 50.6771C41.28 50.4362 41.3553 50.1351 41.3854 49.7737C41.4155 49.4124 41.4305 48.9983 41.4305 48.5315V40.2654Z" fill="#3162DA"/>
<path d="M60.4612 49.5479C59.874 49.5479 59.3922 49.4425 59.0158 49.2317C58.6544 49.0058 58.3759 48.7122 58.1801 48.3509C57.9693 48.8176 57.6456 49.1338 57.2089 49.2994C56.7873 49.4651 56.2077 49.5479 55.4699 49.5479H54.589C54.0018 49.5479 53.52 49.4425 53.1436 49.2317C52.7671 49.0058 52.4811 48.7122 52.2853 48.3509C52.0745 48.8327 51.7583 49.1564 51.3367 49.322C50.9151 49.4726 50.3204 49.5479 49.5525 49.5479H46.8422C46.5411 49.5479 46.3152 49.4651 46.1647 49.2994C46.0141 49.1187 45.9388 48.78 45.9388 48.2831C45.9388 47.7561 46.0141 47.3797 46.1647 47.1538C46.3002 46.928 46.526 46.8151 46.8422 46.8151H48.3554C48.7921 46.8151 49.0707 46.7097 49.1911 46.4989C49.3116 46.273 49.3718 45.8665 49.3718 45.2793V41.8915C49.3718 41.7409 49.4471 41.6656 49.5976 41.6656H52.3531C52.5036 41.6656 52.5789 41.7409 52.5789 41.8915V45.5955C52.5789 46.0773 52.7295 46.401 53.0306 46.5666C53.3318 46.7322 53.663 46.8151 54.0244 46.8151C54.3105 46.8151 54.5363 46.7849 54.702 46.7247C54.8826 46.6645 55.0106 46.5742 55.0859 46.4537C55.1612 46.3332 55.2064 46.1751 55.2214 45.9794C55.2515 45.7686 55.2666 45.5126 55.2666 45.2115V41.8915C55.2666 41.7409 55.3419 41.6656 55.4924 41.6656H58.2479C58.3984 41.6656 58.4737 41.7409 58.4737 41.8915V45.5729C58.4737 46.0848 58.6243 46.4236 58.9254 46.5892C59.2416 46.7398 59.5955 46.8151 59.9869 46.8151C60.273 46.8151 60.4914 46.7849 60.6419 46.7247C60.7925 46.6645 60.9054 46.5742 60.9807 46.4537C61.056 46.3182 61.1012 46.1526 61.1162 45.9568C61.1313 45.746 61.1388 45.4901 61.1388 45.1889V40.2654C61.1388 40.1148 61.2141 40.0395 61.3647 40.0395H64.1201C64.2707 40.0395 64.3459 40.1148 64.3459 40.2654V45.5955C64.3761 45.9719 64.5342 46.273 64.8202 46.4989C65.1214 46.7097 65.5354 46.8151 66.0624 46.8151H66.5819C66.883 46.8151 67.1089 46.9205 67.2595 47.1313C67.41 47.342 67.4853 47.6884 67.4853 48.1702C67.4853 49.0886 67.1842 49.5479 66.5819 49.5479C66.0097 49.5479 65.5129 49.4801 65.0913 49.3446C64.6697 49.2091 64.3158 48.9004 64.0297 48.4186C63.819 48.8553 63.5103 49.1564 63.1037 49.322C62.6972 49.4726 62.2304 49.5479 61.7034 49.5479H60.4612Z" fill="#3162DA"/>
<path d="M67.6214 37.7584C67.4708 37.7584 67.3955 37.6831 67.3955 37.5325V35.3192C67.3955 35.1686 67.4708 35.0933 67.6214 35.0933H69.8799C70.0305 35.0933 70.1058 35.1686 70.1058 35.3192V37.5325C70.1058 37.6831 70.0305 37.7584 69.8799 37.7584H67.6214ZM71.0995 37.7584C70.949 37.7584 70.8737 37.6831 70.8737 37.5325V35.3192C70.8737 35.1686 70.949 35.0933 71.0995 35.0933H73.3807C73.5312 35.0933 73.6065 35.1686 73.6065 35.3192V37.5325C73.6065 37.6831 73.5312 37.7584 73.3807 37.7584H71.0995ZM66.5819 49.5479C66.2808 49.5479 66.0554 49.4575 65.9049 49.2768C65.7543 49.0811 65.679 48.7423 65.679 48.2605C65.679 47.2969 65.9796 46.8151 66.5819 46.8151H67.9827C68.3592 46.8151 68.6302 46.7322 68.7958 46.5666C68.9765 46.3859 69.0668 46.0697 69.0668 45.618V40.2654C69.0668 40.1148 69.1421 40.0395 69.2927 40.0395H72.0255C72.1761 40.0395 72.2514 40.1148 72.2514 40.2654V46.7021C72.2514 47.6808 72.0481 48.4036 71.6416 48.8703C71.235 49.322 70.5575 49.5479 69.6089 49.5479H66.5819Z" fill="#3162DA"/>
</svg>
