<svg width="24" height="24" viewBox="0 0 24 24" fill="none" xmlns="http://www.w3.org/2000/svg">
<path d="M12 10.6431C11.6242 10.6431 11.3125 10.3314 11.3125 9.95558V6.90308C11.3125 6.52724 11.6242 6.21558 12 6.21558C12.3758 6.21558 12.6875 6.52724 12.6875 6.90308V9.95558C12.6875 10.3406 12.3758 10.6431 12 10.6431Z" fill="#040404"/>
<path d="M12.0183 19.6542C9.65329 19.6542 7.29746 19.2784 5.05163 18.5267C4.21746 18.2517 3.58496 17.6559 3.30996 16.9042C3.03496 16.1526 3.12663 15.2909 3.57579 14.5392L4.73996 12.5959C4.99663 12.1651 5.22579 11.3584 5.22579 10.8542V8.92922C5.22579 5.18005 8.26913 2.13672 12.0183 2.13672C15.7675 2.13672 18.8108 5.18005 18.8108 8.92922V10.8542C18.8108 11.3492 19.04 12.1651 19.2966 12.5959L20.4608 14.5392C20.8916 15.2542 20.965 16.1067 20.6808 16.8859C20.3966 17.6651 19.7733 18.2609 18.985 18.5267C16.7391 19.2876 14.3833 19.6542 12.0183 19.6542ZM12.0183 3.52089C9.02996 3.52089 6.60079 5.95005 6.60079 8.93839V10.8634C6.60079 11.6059 6.30746 12.6784 5.92246 13.3109L4.75829 15.2634C4.51996 15.6576 4.46496 16.0792 4.60246 16.4459C4.73996 16.8126 5.05163 17.0876 5.49163 17.2342C9.70829 18.6367 14.3466 18.6367 18.5633 17.2342C18.9575 17.1059 19.26 16.8126 19.3975 16.4276C19.5441 16.0426 19.4983 15.6209 19.2875 15.2634L18.1233 13.3201C17.7383 12.6876 17.445 11.6151 17.445 10.8726V8.94755C17.4358 5.95005 15.0066 3.52089 12.0183 3.52089Z" fill="#040404"/>
<path d="M12 21.9915C11.0192 21.9915 10.0567 21.5881 9.36001 20.8915C8.66334 20.1948 8.26001 19.2323 8.26001 18.2515H9.63501C9.63501 18.8748 9.89168 19.4798 10.3317 19.9198C10.7717 20.3598 11.3767 20.6165 12 20.6165C13.3017 20.6165 14.365 19.5531 14.365 18.2515H15.74C15.74 20.314 14.0625 21.9915 12 21.9915Z" fill="#040404"/>
</svg>
